<svg xmlns="http://www.w3.org/2000/svg" fill="none" viewBox="0 0 24 24"><path fill="url(#code_svg__a)" fill-rule="evenodd" d="M1.5 2a.5.5 0 0 0-.5.5v20a.5.5 0 0 0 .5.5h22a.5.5 0 0 0 .5-.5v-20a.5.5 0 0 0-.5-.5h-22ZM6 3H2v3h4V3Zm1 3V3h16v3H7Zm-.5 1H2v15h21V7H6.5Zm7.121 3.015a.5.5 0 0 1 .364.606l-2 8a.5.5 0 0 1-.97-.242l2-8a.5.5 0 0 1 .606-.364Zm-4.767 2.839a.5.5 0 0 0-.708-.708l-2 2a.5.5 0 0 0 0 .708l2 2a.5.5 0 0 0 .708-.708L7.207 14.5l1.647-1.646Zm8-.708a.5.5 0 0 0-.708.708l1.647 1.646-1.647 1.646a.5.5 0 0 0 .708.708l2-2a.5.5 0 0 0 0-.708l-2-2Z" clip-rule="evenodd"/><defs><linearGradient id="code_svg__a" x1="12.5" x2="12.5" y1="2" y2="23" gradientUnits="userSpaceOnUse"><stop stop-color="#C59FDF"/><stop offset="1" stop-color="#AD79D2"/></linearGradient></defs></svg>