<svg xmlns="http://www.w3.org/2000/svg" fill="none" viewBox="0 0 24 24"><path fill="url(#compare_svg__a)" fill-rule="evenodd" d="M3 4a1 1 0 0 0-1 1v15a1 1 0 0 0 1 1h6a1 1 0 0 0 1-1V5a1 1 0 0 0-1-1H3ZM1 5a2 2 0 0 1 2-2h6a2 2 0 0 1 2 2v15a2 2 0 0 1-2 2H3a2 2 0 0 1-2-2V5Zm13.586-1.414A2 2 0 0 1 16 3h.5a.5.5 0 0 1 0 1H16a1 1 0 0 0-1 1v.5a.5.5 0 0 1-1 0V5a2 2 0 0 1 .586-1.414ZM21.5 3a.5.5 0 0 0 0 1h.5a1 1 0 0 1 1 1v.5a.5.5 0 0 0 1 0V5a2 2 0 0 0-2-2h-.5Zm2 16a.5.5 0 0 1 .5.5v.5a2 2 0 0 1-2 2h-.5a.5.5 0 0 1 0-1h.5a1 1 0 0 0 1-1v-.5a.5.5 0 0 1 .5-.5Zm-8.5.5a.5.5 0 0 0-1 0v.5a2 2 0 0 0 2 2h.5a.5.5 0 0 0 0-1H16a1 1 0 0 1-1-1v-.5ZM14.5 9a.5.5 0 0 1 .5.5v1a.5.5 0 0 1-1 0v-1a.5.5 0 0 1 .5-.5Zm9.5.5a.5.5 0 0 0-1 0v1a.5.5 0 0 0 1 0v-1ZM14.5 14a.5.5 0 0 1 .5.5v1a.5.5 0 0 1-1 0v-1a.5.5 0 0 1 .5-.5Zm9.5.5a.5.5 0 0 0-1 0v1a.5.5 0 0 0 1 0v-1Z" clip-rule="evenodd"/><defs><linearGradient id="compare_svg__a" x1="12.5" x2="12.5" y1="3" y2="22" gradientUnits="userSpaceOnUse"><stop stop-color="#99E6DF"/><stop offset="1" stop-color="#70DCD3"/></linearGradient></defs></svg>