<svg xmlns="http://www.w3.org/2000/svg" fill="none" viewBox="0 0 24 24"><path fill="url(#pull-request_svg__a)" fill-rule="evenodd" d="M18 15.541V8.5A2.5 2.5 0 0 0 15.5 6h-2.293l2.147 2.146a.5.5 0 0 1-.708.708l-3-3a.5.5 0 0 1 0-.708l3-3a.5.5 0 0 1 .708.708L13.207 5H15.5A3.5 3.5 0 0 1 19 8.5v7.041a3 3 0 1 1-1 0Zm.5.959a2 2 0 1 0 0 4 2 2 0 0 0 0-4Zm-15-11a2 2 0 1 1 4 0 2 2 0 0 1-4 0Zm2-3A3 3 0 0 0 5 8.459v7.082a3 3 0 1 0 1 0V8.46A3 3 0 0 0 5.5 2.5Zm0 14a2 2 0 1 0 0 4 2 2 0 0 0 0-4Z" clip-rule="evenodd"/><defs><linearGradient id="pull-request_svg__a" x1="12" x2="12" y1="2" y2="21.5" gradientUnits="userSpaceOnUse"><stop stop-color="#EFB78F"/><stop offset="1" stop-color="#E99B63"/></linearGradient></defs></svg>