<svg xmlns="http://www.w3.org/2000/svg" fill="none" viewBox="0 0 24 24"><g clip-path="url(#quality_svg__a)"><path fill="url(#quality_svg__b)" fill-rule="evenodd" d="M14.628 1.262a3.481 3.481 0 0 0-5.256 0 2.481 2.481 0 0 1-2.261.824 3.481 3.481 0 0 0-4.026 3.378A2.481 2.481 0 0 1 1.88 7.548a3.481 3.481 0 0 0-.912 5.175c.539.666.697 1.561.418 2.37-.69 2.001.55 4.149 2.628 4.552a2.48 2.48 0 0 1 1.843 1.547 3.481 3.481 0 0 0 4.939 1.797 2.481 2.481 0 0 1 2.406 0 3.481 3.481 0 0 0 4.939-1.797 2.481 2.481 0 0 1 1.844-1.547 3.481 3.481 0 0 0 2.627-4.551 2.481 2.481 0 0 1 .418-2.37 3.481 3.481 0 0 0-.912-5.176 2.48 2.48 0 0 1-1.204-2.084 3.481 3.481 0 0 0-4.026-3.378 2.481 2.481 0 0 1-2.261-.824Zm-4.5.656a2.481 2.481 0 0 1 3.745 0 3.481 3.481 0 0 0 3.173 1.155c1.49-.236 2.843.9 2.87 2.408.02 1.2.658 2.306 1.688 2.924a2.481 2.481 0 0 1 .65 3.689 3.481 3.481 0 0 0-.586 3.325 2.481 2.481 0 0 1-1.873 3.244 3.481 3.481 0 0 0-2.587 2.17 2.481 2.481 0 0 1-3.52 1.282 3.481 3.481 0 0 0-3.376 0 2.481 2.481 0 0 1-3.52-1.281 3.48 3.48 0 0 0-2.587-2.17 2.481 2.481 0 0 1-1.873-3.245 3.481 3.481 0 0 0-.586-3.325 2.481 2.481 0 0 1 .65-3.689 3.481 3.481 0 0 0 1.689-2.924 2.481 2.481 0 0 1 2.87-2.408 3.481 3.481 0 0 0 3.172-1.155Zm7.243 7.418a.5.5 0 1 0-.742-.671l-5.965 6.593-3.295-3.595a.5.5 0 1 0-.738.675l3.667 4a.5.5 0 0 0 .74-.002l6.333-7Z" clip-rule="evenodd"/></g><defs><linearGradient id="quality_svg__b" x1="12" x2="12" y1=".064" y2="23.428" gradientUnits="userSpaceOnUse"><stop stop-color="#EFB78F"/><stop offset="1" stop-color="#E99B63"/></linearGradient><clipPath id="quality_svg__a"><path fill="#fff" d="M0 0h24v24H0z"/></clipPath></defs></svg>