<svg xmlns="http://www.w3.org/2000/svg" fill="none" viewBox="0 0 24 24"><path fill="url(#webhooks_svg__a)" fill-rule="evenodd" d="M8.5 6a3.5 3.5 0 0 1 5.268-3.022.5.5 0 0 0 .506-.862 4.5 4.5 0 0 0-4.96 7.495l-3.511 6.02a2.5 2.5 0 1 0 .863.504l3.682-6.311a.498.498 0 0 0-.098-.792A3.498 3.498 0 0 1 8.5 6ZM12 4.5a1.5 1.5 0 1 0 0 3 1.5 1.5 0 0 0 0-3ZM9.5 6a2.5 2.5 0 1 1 4.166 1.864l3.512 6.02a4.5 4.5 0 0 1 4.089 8.004.5.5 0 1 1-.505-.864 3.5 3.5 0 1 0-3.53-6.046.5.5 0 0 1-.717-.246l-3.712-6.364A2.5 2.5 0 0 1 9.5 6ZM9 17.5h7.55a2.5 2.5 0 1 1 0 1H9.473A4.5 4.5 0 0 1 .5 18a.5.5 0 0 1 1 0 3.5 3.5 0 1 0 7 0 .5.5 0 0 1 .5-.5Zm-4-1a1.5 1.5 0 1 0 0 3 1.5 1.5 0 0 0 0-3Zm14 3a1.5 1.5 0 1 0 0-3 1.5 1.5 0 0 0 0 3Z" clip-rule="evenodd"/><defs><linearGradient id="webhooks_svg__a" x1="12" x2="12" y1="1.5" y2="22.5" gradientUnits="userSpaceOnUse"><stop stop-color="#C59FDF"/><stop offset="1" stop-color="#AD79D2"/></linearGradient></defs></svg>